HIERARCHY
ROOT Hips
{
	OFFSET 0.000000 0.000000 0.000000
	CHANNELS 6 Xposition Yposition Zposition Xrotation Yrotation Zrotation
	JOINT Chest
	{
		OFFSET 0.000000 0.009282 11.569106
		CHANNELS 6 Xposition Yposition Zposition Xrotation Yrotation Zrotation
		JOINT Chest2
		{
			OFFSET 0.000000 -0.016863 9.269641
			CHANNELS 6 Xposition Yposition Zposition Xrotation Yrotation Zrotation
			JOINT Chest3
			{
				OFFSET 0.000000 0.000000 8.374491
				CHANNELS 6 Xposition Yposition Zposition Xrotation Yrotation Zrotation
				JOINT Chest4
				{
					OFFSET 0.000000 0.000000 8.374493
					CHANNELS 6 Xposition Yposition Zposition Xrotation Yrotation Zrotation
					JOINT Neck
					{
						OFFSET 0.000000 -0.000001 12.152554
						CHANNELS 6 Xposition Yposition Zposition Xrotation Yrotation Zrotation
						JOINT Head
						{
							OFFSET 0.000000 -0.040100 7.802319
							CHANNELS 6 Xposition Yposition Zposition Xrotation Yrotation Zrotation
							End Site
							{
								OFFSET 0.000000 -0.020946 14.853096
							}
						}
					}
					JOINT RightCollar
					{
						OFFSET -2.894404 0.000000 6.791374
						CHANNELS 6 Xposition Yposition Zposition Xrotation Yrotation Zrotation
						JOINT RightShoulder
						{
							OFFSET -13.574684 0.000000 0.000000
							CHANNELS 6 Xposition Yposition Zposition Xrotation Yrotation Zrotation
							JOINT RightElbow
							{
								OFFSET -23.923903 0.000000 0.000000
								CHANNELS 6 Xposition Yposition Zposition Xrotation Yrotation Zrotation
								JOINT RightWrist
								{
									OFFSET -19.846718 -0.012765 0.000000
									CHANNELS 6 Xposition Yposition Zposition Xrotation Yrotation Zrotation
									End Site
									{
										OFFSET -14.973145 0.000000 0.000000
									}
								}
							}
						}
					}
					JOINT LeftCollar
					{
						OFFSET 2.894404 0.000000 6.791374
						CHANNELS 6 Xposition Yposition Zposition Xrotation Yrotation Zrotation
						JOINT LeftShoulder
						{
							OFFSET 13.574684 0.000000 0.000000
							CHANNELS 6 Xposition Yposition Zposition Xrotation Yrotation Zrotation
							JOINT LeftElbow
							{
								OFFSET 23.923903 0.000000 0.000000
								CHANNELS 6 Xposition Yposition Zposition Xrotation Yrotation Zrotation
								JOINT LeftWrist
								{
									OFFSET 19.846718 -0.012765 0.000000
									CHANNELS 6 Xposition Yposition Zposition Xrotation Yrotation Zrotation
									End Site
									{
										OFFSET 14.973145 0.000000 0.000000
									}
								}
							}
						}
					}
				}
			}
		}
	}
	JOINT RightHip
	{
		OFFSET -9.469263 -0.004642 0.045487
		CHANNELS 6 Xposition Yposition Zposition Xrotation Yrotation Zrotation
		JOINT RightKnee
		{
			OFFSET 0.000000 -0.002666 -40.478676
			CHANNELS 6 Xposition Yposition Zposition Xrotation Yrotation Zrotation
			JOINT RightAnkle
			{
				OFFSET 0.000000 -0.049110 -35.224068
				CHANNELS 6 Xposition Yposition Zposition Xrotation Yrotation Zrotation
				JOINT RightToe
				{
					OFFSET 0.000000 -12.539530 -6.151390
					CHANNELS 6 Xposition Yposition Zposition Xrotation Yrotation Zrotation
					End Site
					{
						OFFSET 0.000000 -5.044995 -1.291870
					}
				}
			}
		}
	}
	JOINT LeftHip
	{
		OFFSET 9.469263 -0.004642 0.045487
		CHANNELS 6 Xposition Yposition Zposition Xrotation Yrotation Zrotation
		JOINT LeftKnee
		{
			OFFSET 0.000000 -0.002666 -40.478676
			CHANNELS 6 Xposition Yposition Zposition Xrotation Yrotation Zrotation
			JOINT LeftAnkle
			{
				OFFSET 0.000000 -0.049110 -35.224068
				CHANNELS 6 Xposition Yposition Zposition Xrotation Yrotation Zrotation
				JOINT LeftToe
				{
					OFFSET 0.000000 -12.539530 -6.151390
					CHANNELS 6 Xposition Yposition Zposition Xrotation Yrotation Zrotation
					End Site
					{
						OFFSET 0.000000 -5.044995 -1.291870
					}
				}
			}
		}
	}
}
MOTION
Frames: 5
Frame Time: 0.016667
-12.459116 -4.937382 82.928543 2.574615 4.953222 -112.044684 0.000001 0.009281 11.569107 1.656928 0.745429 -0.582144 -0.000000 -0.016862 9.269654 0.733179 0.326860 -0.256330 0.000000 0.000000 8.374500 0.733181 0.326860 -0.256326 0.000001 0.000000 8.374504 0.549746 0.245452 -0.191855 0.000000 -0.000003 12.152555 18.302641 -0.937517 -0.739684 0.000001 -0.040096 7.802305 -2.204383 -1.467407 -1.660093 -2.894403 -0.000001 6.791373 3.581205 -7.723636 4.364487 -13.574681 0.000001 -0.000004 30.702158 -73.274085 72.054684 -23.923897 -0.000000 -0.000001 26.303805 -8.084285 82.428355 -19.846710 -0.012762 0.000001 -58.126733 26.817616 81.174872 2.894404 -0.000001 6.791373 4.283265 9.692100 -6.258499 13.574683 0.000002 0.000005 19.816821 66.062976 -63.605986 23.923895 -0.000006 0.000001 31.300752 17.818823 -79.323099 19.846725 -0.012759 -0.000001 -44.835619 -35.680041 -88.018237 -9.469263 -0.004643 0.045497 10.342064 -0.665838 -2.340761 -0.000004 -0.002666 -40.478626 0.921304 -0.043645 0.096234 0.000006 -0.049126 -35.224331 -5.972003 -0.371362 -0.154010 0.000001 -12.539531 -6.151383 -0.026368 -0.038429 -0.017195 9.469263 -0.004643 0.045488 10.083333 -0.549174 0.734178 -0.000035 -0.002665 -40.478672 0.123635 -0.223625 0.713029 0.000030 -0.049123 -35.224285 -4.791232 0.655527 -0.665050 -0.000003 -12.539530 -6.151379 0.038494 -0.006293 0.017526 
-12.485149 -4.942213 82.928337 2.592289 4.949013 -112.083821 0.000001 0.009281 11.569124 1.623372 0.744491 -0.593531 -0.000000 -0.016861 9.269653 0.718186 0.326641 -0.261989 -0.000001 0.000000 8.374496 0.718186 0.326642 -0.261991 0.000000 0.000000 8.374486 0.538498 0.245290 -0.196108 0.000001 -0.000001 12.152556 18.267807 -0.959947 -0.703936 0.000001 -0.040103 7.802309 -2.269372 -1.519753 -1.602653 -2.894403 -0.000001 6.791372 3.659993 -7.721524 4.349803 -13.574682 0.000001 0.000005 30.756007 -73.257303 72.158285 -23.923895 -0.000004 0.000002 26.415670 -8.092611 82.474650 -19.846714 -0.012764 0.000001 -58.087890 26.779906 81.144553 2.894404 0.000000 6.791372 4.375356 9.698991 -6.210521 13.574688 0.000000 0.000010 19.629706 66.123990 -63.442294 23.923891 -0.000013 -0.000005 31.470776 17.842211 -79.479688 19.846716 -0.012778 0.000006 -44.847186 -35.630167 -87.981518 -9.469264 -0.004643 0.045506 10.341981 -0.664967 -2.286889 -0.000004 -0.002666 -40.478638 0.952340 -0.044463 0.106113 0.000007 -0.049129 -35.224350 -5.988648 -0.366741 -0.171737 0.000001 -12.539533 -6.151378 -0.028235 -0.039491 -0.017801 9.469262 -0.004642 0.045504 10.112636 -0.555877 0.795165 -0.000036 -0.002667 -40.478664 0.114704 -0.210526 0.716979 0.000031 -0.049123 -35.224289 -4.811170 0.643891 -0.686117 -0.000002 -12.539534 -6.151380 0.038717 -0.009401 0.018988 
-12.512071 -4.944735 82.928543 2.609618 4.941509 -112.136290 -0.000001 0.009284 11.569110 1.590601 0.744736 -0.603356 -0.000001 -0.016863 9.269638 0.704042 0.326928 -0.266696 -0.000002 -0.000000 8.374484 0.704041 0.326927 -0.266694 -0.000001 0.000001 8.374503 0.527887 0.245503 -0.199639 0.000001 -0.000002 12.152550 18.226595 -0.986887 -0.670871 0.000001 -0.040102 7.802304 -2.346268 -1.579406 -1.551730 -2.894404 -0.000000 6.791371 3.722461 -7.714644 4.326693 -13.574685 0.000001 0.000009 30.867158 -73.279679 72.266864 -23.923903 -0.000015 -0.000001 26.583533 -8.115125 82.532038 -19.846712 -0.012762 -0.000000 -58.058930 26.753306 81.129349 2.894403 -0.000001 6.791370 4.448361 9.701363 -6.158580 13.574688 0.000002 0.000004 19.440168 66.213855 -63.208599 23.923906 -0.000005 0.000000 31.657988 17.973122 -79.675571 19.846708 -0.012775 -0.000004 -44.876122 -35.569764 -87.905778 -9.469264 -0.004640 0.045488 10.339696 -0.664249 -2.217799 -0.000004 -0.002666 -40.478626 0.980152 -0.045267 0.116031 0.000008 -0.049128 -35.224335 -6.002690 -0.362141 -0.194870 0.000001 -12.539532 -6.151384 -0.030359 -0.038892 -0.017964 9.469263 -0.004640 0.045490 10.141499 -0.560264 0.853091 -0.000035 -0.002665 -40.478664 0.106341 -0.203168 0.730600 0.000034 -0.049123 -35.224289 -4.832633 0.637040 -0.702310 -0.000002 -12.539532 -6.151377 0.037391 -0.012265 0.020011 
-12.538267 -4.943961 82.928780 2.628747 4.932325 -112.201485 -0.000001 0.009282 11.569103 1.570067 0.740375 -0.608628 -0.000000 -0.016862 9.269643 0.695279 0.325071 -0.269024 0.000000 -0.000001 8.374485 0.695279 0.325071 -0.269031 0.000000 -0.000001 8.374489 0.521316 0.244110 -0.201403 -0.000000 0.000000 12.152538 18.168904 -1.014719 -0.643354 -0.000001 -0.040101 7.802313 -2.453787 -1.638717 -1.511470 -2.894405 0.000002 6.791370 3.765196 -7.689437 4.291343 -13.574681 0.000002 0.000016 31.032268 -73.337285 72.385935 -23.923903 -0.000008 -0.000001 26.780072 -8.077546 82.623589 -19.846716 -0.012764 0.000001 -58.052783 26.744490 81.143884 2.894404 0.000001 6.791363 4.487078 9.703412 -6.121270 13.574682 -0.000000 0.000000 19.367983 66.342823 -63.007204 23.923887 -0.000010 -0.000008 31.804311 18.095632 -79.878721 19.846714 -0.012756 0.000004 -44.941593 -35.493973 -87.818624 -9.469265 -0.004642 0.045484 10.337109 -0.668766 -2.154094 -0.000005 -0.002666 -40.478619 1.004948 -0.039014 0.129947 0.000008 -0.049126 -35.224342 -6.014854 -0.362826 -0.202373 -0.000000 -12.539532 -6.151380 -0.031924 -0.036523 -0.018649 9.469262 -0.004642 0.045484 10.169770 -0.568402 0.896720 -0.000034 -0.002666 -40.478672 0.101656 -0.192539 0.751994 0.000031 -0.049118 -35.224293 -4.857753 0.628372 -0.699452 -0.000000 -12.539531 -6.151380 0.035876 -0.014065 0.021413 
-12.563110 -4.940612 82.928879 2.650805 4.921841 -112.281015 0.000000 0.009283 11.569108 1.563741 0.734964 -0.600818 0.000000 -0.016865 9.269641 0.692791 0.322280 -0.265086 0.000000 0.000001 8.374491 0.692791 0.322280 -0.265089 -0.000000 -0.000001 8.374485 0.519451 0.242011 -0.198456 -0.000000 -0.000003 12.152551 18.094652 -1.048981 -0.624655 -0.000002 -0.040093 7.802317 -2.592190 -1.706671 -1.489707 -2.894404 0.000001 6.791380 3.786420 -7.666609 4.238723 -13.574683 0.000001 -0.000005 31.198255 -73.427081 72.491871 -23.923904 -0.000011 -0.000001 26.993334 -7.996248 82.735311 -19.846712 -0.012766 -0.000000 -58.034505 26.711850 81.126624 2.894403 0.000000 6.791379 4.504459 9.693627 -6.096410 13.574684 -0.000001 0.000001 19.443897 66.529785 -62.897750 23.923903 -0.000005 -0.000004 31.915176 18.163660 -80.075956 19.846712 -0.012757 -0.000001 -44.957610 -35.390622 -87.721089 -9.469262 -0.004640 0.045494 10.336999 -0.673744 -2.101537 -0.000005 -0.002666 -40.478630 1.020913 -0.036844 0.153425 0.000008 -0.049127 -35.224342 -6.021738 -0.365121 -0.194888 0.000001 -12.539533 -6.151379 -0.032393 -0.031173 -0.019637 9.469262 -0.004642 0.045494 10.200669 -0.577646 0.935150 -0.000039 -0.002665 -40.478672 0.094278 -0.184414 0.783919 0.000033 -0.049120 -35.224289 -4.880910 0.619736 -0.684073 -0.000000 -12.539529 -6.151377 0.033056 -0.013844 0.022719 
